<mxfile host="app.diagrams.net" modified="2023-08-17T12:15:40.081Z" agent="Mozilla/5.0 (Macintosh; Intel Mac OS X 10_15_7) AppleWebKit/537.36 (KHTML, like Gecko) Chrome/116.0.0.0 Safari/537.36" version="21.6.8" etag="IP6OR7-EUVq6er1EBC-z" type="github">
  <diagram name="Page-1" id="capmr-07-IH4IaqrnMZI">
    <mxGraphModel>
      <root>
        <mxCell id="0" />
        <mxCell id="1" parent="0" />
      </root>
    </mxGraphModel>
  </diagram>
</mxfile>
